<?xml version="1.0" standalone="no"?><!DOCTYPE svg PUBLIC "-//W3C//DTD SVG 1.1//EN" "http://www.w3.org/Graphics/SVG/1.1/DTD/svg11.dtd"><svg t="1607303501659" class="icon" viewBox="0 0 1024 1024" version="1.1" xmlns="http://www.w3.org/2000/svg" p-id="7656" xmlns:xlink="http://www.w3.org/1999/xlink" width="200" height="200"><defs><style type="text/css"></style></defs><path d="M786.56 990.08a41.6 41.6 0 0 1-33.92-17.92 43.52 43.52 0 0 1 9.6-58.88 442.88 442.88 0 0 0 178.56-355.84A433.92 433.92 0 0 0 512 119.04a434.56 434.56 0 0 0-429.44 438.4A437.76 437.76 0 0 0 256 908.16a42.88 42.88 0 0 1 8.32 59.52 40.32 40.32 0 0 1-33.28 17.28 44.8 44.8 0 0 1-24.96-8.32 531.84 531.84 0 0 1-56.32-789.76 505.6 505.6 0 0 1 724.48 0A526.72 526.72 0 0 1 1024 556.8a536.32 536.32 0 0 1-56.96 240 519.68 519.68 0 0 1-156.16 184.96 37.12 37.12 0 0 1-24.32 8.32zM512 748.16a100.48 100.48 0 0 1-99.2-101.76 78.72 78.72 0 0 1 0-17.28V620.8L293.76 512a46.72 46.72 0 0 1-14.72-29.44 44.8 44.8 0 0 1 10.24-30.72 39.68 39.68 0 0 1 30.72-12.16 42.88 42.88 0 0 1 28.16 8.32l119.68 106.88 7.68-3.2A99.2 99.2 0 0 1 512 544.64a101.76 101.76 0 0 1 0 203.52z m323.2-148.48a42.24 42.24 0 0 1-40.96-42.24A285.44 285.44 0 0 0 512 268.8a285.44 285.44 0 0 0-282.24 288.64 41.6 41.6 0 1 1-82.56 0A373.12 373.12 0 0 1 256 293.76a358.4 358.4 0 0 1 515.84 0 373.12 373.12 0 0 1 104.96 263.68 42.24 42.24 0 0 1-12.16 29.44 39.04 39.04 0 0 1-28.8 12.8z" fill="#2c2c2c" p-id="7657"></path></svg>