<?xml version="1.0" standalone="no"?><!DOCTYPE svg PUBLIC "-//W3C//DTD SVG 1.1//EN" "http://www.w3.org/Graphics/SVG/1.1/DTD/svg11.dtd"><svg t="1607303455828" class="icon" viewBox="0 0 1024 1024" version="1.1" xmlns="http://www.w3.org/2000/svg" p-id="5822" xmlns:xlink="http://www.w3.org/1999/xlink" width="200" height="200"><defs><style type="text/css"></style></defs><path d="M1004.67124 227.197c-11.053-6.048-24.59-5.524-35.128 1.361l-188.32 119.869V214.973a33.48 33.48 0 0 0-9.864-24.003c-6.398-6.38-15.107-9.97-24.197-9.97H34.37124c-9.14-0.077-17.927 3.476-24.39 9.865C3.51724 197.253-0.07676 205.94 0.00124 214.973V809.03c-0.078 9.032 3.516 17.718 9.98 24.108 6.463 6.387 15.25 9.94 24.39 9.863h712.791c18.947-0.087 34.283-15.246 34.369-33.971V674.82L970.00124 794.691a36.792 36.792 0 0 0 18.631 5.43 32.924 32.924 0 0 0 16.491-4.077c11.056-6.119 17.89-17.67 17.878-30.192v-508.76c-0.195-12.509-7.202-23.94-18.33-29.895zM714.00124 404.727a31.997 31.997 0 0 0 0 5.279v201.682a31.997 31.997 0 0 0 0 5.278V774H69.00124V248h645v156.728zM954.00124 705L781.00124 595.135V430.863L954.00124 321v384z" fill="#2c2c2c" p-id="5823"></path></svg>