<?xml version="1.0" standalone="no"?><!DOCTYPE svg PUBLIC "-//W3C//DTD SVG 1.1//EN" "http://www.w3.org/Graphics/SVG/1.1/DTD/svg11.dtd"><svg t="1607303487923" class="icon" viewBox="0 0 1415 1024" version="1.1" xmlns="http://www.w3.org/2000/svg" p-id="6742" xmlns:xlink="http://www.w3.org/1999/xlink" width="276.3671875" height="200"><defs><style type="text/css"></style></defs><path d="M1116.672 334.576941c135.619765-8.493176 154.232471-19.305412 234.164706 56.952471 127.337412-60.114824 50.898824-275.727059-92.431059-230.219294C1265.423059 60.536471 1073.904941-117.007059 933.647059 111.344941c4.547765 1.656471 181.458824 62.915765 183.024941 223.232" p-id="6743" fill="#2c2c2c"></path><path d="M933.647059 120.470588v4.818824l1.927529-3.855059z" p-id="6744" fill="#2c2c2c"></path><path d="M800.256 602.352941c-32.647529 0-58.789647 12.559059-78.426353 37.014588-18.883765 24.335059-29.123765 58.036706-29.123765 100.653177h0.752942c0 41.472 9.396706 73.637647 29.033411 97.370353 19.606588 23.552 45.116235 36.020706 77.763765 36.020706 33.430588 0 59.723294-11.685647 77.101176-34.334118 17.498353-23.702588 26.172235-56.801882 26.172236-100.743529 0-43.971765-8.673882-77.040941-26.142118-100.592942-17.408-23.612235-43.730824-35.388235-77.101176-35.388235" p-id="6745" fill="#2c2c2c"></path><path d="M1175.04 421.195294l-154.021647-5.360941C964.577882 5.722353 382.614588-64.752941 258.831059 484.050824l-60.325647 3.102117C-118.723765 637.952 5.872941 973.944471 149.082353 1023.126588V1024h1032.884706c245.248-62.945882 298.616471-473.961412-6.927059-602.804706zM524.348235 613.014588a138.059294 138.059294 0 0 0-83.606588-27.286588c-35.629176 0-65.054118 12.137412-87.431529 36.382118-22.497882 24.274824-34.093176 56.771765-34.093177 97.129411 0 39.996235 10.902588 71.047529 31.713883 93.936942 21.684706 22.708706 49.513412 34.032941 85.955764 34.032941 30.208 0 59.512471-9.878588 86.558118-29.57553V875.279059c-27.045647 15.992471-59.512471 23.491765-98.243765 23.491765-51.109647 0-92.099765-16.022588-123.00047-48.51953-30.900706-31.744-46.381176-73.487059-46.381177-124.988235 0-56.922353 17.046588-102.460235 50.326588-137.306353 33.189647-34.816 78.848-52.284235 134.625883-52.284235 32.466824 0 60.295529 5.421176 83.57647 16.685176v60.656941z m401.498353 235.760941c-32.466824 33.28-74.992941 50.748235-129.234823 50.748236-52.585412 0-95.171765-15.992471-126.885647-48.489412-31.683765-32.436706-47.134118-75.715765-47.134118-128.873412v-0.602353c0-57.705412 16.263529-102.460235 48.64-135.830588 32.557176-33.370353 76.649412-49.272471 133.180235-49.272471 53.398588 0 94.298353 15.962353 124.506353 47.826824 30.208 31.924706 45.778824 75.866353 45.778824 131.855059 0 54.512941-16.353882 99.177412-48.850824 132.638117z m258.499765 18.853647v22.889412h-124.687059v-22.046117l59.632941-58.488471c16.323765-15.992471 27.919059-28.732235 33.28-38.550588a55.717647 55.717647 0 0 0 8.493177-29.665883c0-11.264-2.981647-20.208941-9.999059-26.413176-6.144-6.023529-16.263529-9.185882-28.611765-9.185882-18.552471 0-35.478588 7.649882-52.705882 23.04v-25.901177c16.353882-12.197647 34.876235-18.311529 56.560941-18.311529 18.612706 0 33.370353 4.728471 44.152471 14.546823 10.812235 9.788235 16.263529 22.618353 16.263529 39.393883 0 12.739765-3.011765 24.937412-10.029176 37.165176-6.927059 12.107294-20.088471 27.166118-39.424 46.170353l-47.224471 44.754824v0.662588h94.268235v-0.060236z" p-id="6746" fill="#2c2c2c"></path></svg>