<?xml version="1.0" standalone="no"?><!DOCTYPE svg PUBLIC "-//W3C//DTD SVG 1.1//EN" "http://www.w3.org/Graphics/SVG/1.1/DTD/svg11.dtd"><svg t="1607303366107" class="icon" viewBox="0 0 1024 1024" version="1.1" xmlns="http://www.w3.org/2000/svg" p-id="3164" xmlns:xlink="http://www.w3.org/1999/xlink" width="200" height="200"><defs><style type="text/css"></style></defs><path d="M212.813951 124.235553a422.358565 422.358565 0 0 1 598.361871 0c165.247744 165.741442 126.774571 434.207315-38.473173 599.842965l-260.531442 299.921482-260.707762-299.745162c-165.247744-165.741442-203.720917-434.207315-38.473173-599.842964zM511.994887 914.963289l206.330463-245.367862c135.167436-135.520077 173.640609-355.286177 38.473173-490.806254a345.588539 345.588539 0 0 0-489.572009 0C132.023814 314.30925 170.496987 534.040085 305.699687 669.595427z m0-722.13899a192.789035 192.789035 0 1 0 192.330601 192.824299A192.57745 192.57745 0 0 0 511.994887 192.789035z m0 308.490668a115.666368 115.666368 0 1 1 115.419519-115.666369 115.525312 115.525312 0 0 1-115.419519 115.631104z" p-id="3165" fill="#2c2c2c"></path></svg>