<?xml version="1.0" standalone="no"?><!DOCTYPE svg PUBLIC "-//W3C//DTD SVG 1.1//EN" "http://www.w3.org/Graphics/SVG/1.1/DTD/svg11.dtd"><svg t="1607303437952" class="icon" viewBox="0 0 1024 1024" version="1.1" xmlns="http://www.w3.org/2000/svg" p-id="4917" xmlns:xlink="http://www.w3.org/1999/xlink" width="200" height="200"><defs><style type="text/css"></style></defs><path d="M801.92 469.696a2168.768 2168.768 0 0 0-91.392-141.184 27.264 27.264 0 0 0-22.08-11.648 27.264 27.264 0 0 0-22.144 11.648c-1.92 2.56-46.208 64.896-91.328 141.184-63.36 107.136-94.08 183.424-94.08 233.088 0 58.496 21.568 113.472 60.8 154.88a200.96 200.96 0 0 0 146.752 64.128A200.96 200.96 0 0 0 835.2 857.6c39.232-41.408 60.8-96.384 60.8-154.88 0-49.664-30.784-125.952-94.08-233.088z m-113.472 393.6c-83.904 0-152.192-72-152.192-160.512 0-21.312 11.136-75.84 85.568-201.856 24.64-41.664 49.472-79.744 66.56-105.152 17.088 25.344 41.856 63.232 66.496 104.832 74.56 126.208 85.76 180.864 85.76 202.24 0 88.448-68.288 160.448-152.192 160.448z m-37.76-82.304a88.064 88.064 0 0 1-45.44-78.208c0-27.392 11.84-52.736 32.448-69.504a20.224 20.224 0 0 0 3.328-27.328 17.856 17.856 0 0 0-25.856-3.52c-29.76 24.192-46.848 60.8-46.848 100.352 0 47.872 25.152 91.136 65.6 112.96a17.6 17.6 0 0 0 8.32 2.112c6.784 0 13.248-3.84 16.512-10.624a20.032 20.032 0 0 0-8.064-26.24z m-134.528 104.832a27.328 27.328 0 0 1 35.52 17.472 29.696 29.696 0 0 1-16.576 37.504c-33.152 12.736-68.096 19.2-103.68 19.2a288 288 0 0 1-118.144-25.152 302.016 302.016 0 0 1-96.448-68.608 320.448 320.448 0 0 1-64.96-101.696A333.184 333.184 0 0 1 128 639.936c0-41.472 14.912-95.616 45.632-165.44 23.36-53.12 55.808-114.88 96.384-183.616a3374.72 3374.72 0 0 1 139.264-215.232A27.264 27.264 0 0 1 431.36 64c8.704 0 16.896 4.288 22.144 11.648a3320.96 3320.96 0 0 1 162.496 255.424 30.144 30.144 0 0 1-9.6 40.128 26.88 26.88 0 0 1-37.952-10.112A3221.312 3221.312 0 0 0 431.36 142.72c-25.728 37.632-70.336 104.704-114.56 179.456-39.296 66.624-70.592 126.208-92.928 177.088-33.472 76.032-40.448 118.464-40.448 140.672 0 144.256 111.232 261.632 247.936 261.632 29.184 0 57.728-5.312 84.8-15.744z m-200.448-367.36a20.224 20.224 0 0 1 3.008 27.328 155.328 155.328 0 0 0-31.104 94.144c0 59.136 32.96 113.28 83.84 137.92 9.28 4.48 13.376 16 9.088 25.856a18.432 18.432 0 0 1-16.768 11.328 17.6 17.6 0 0 1-7.68-1.792 184.064 184.064 0 0 1-76.032-69.12A197.44 197.44 0 0 1 250.688 640c0-43.456 13.504-84.416 39.04-118.4 6.4-8.384 17.984-9.792 25.984-3.136z" p-id="4918" fill="#2c2c2c"></path></svg>