<?xml version="1.0" standalone="no"?><!DOCTYPE svg PUBLIC "-//W3C//DTD SVG 1.1//EN" "http://www.w3.org/Graphics/SVG/1.1/DTD/svg11.dtd"><svg t="1607303408825" class="icon" viewBox="0 0 1024 1024" version="1.1" xmlns="http://www.w3.org/2000/svg" p-id="4112" xmlns:xlink="http://www.w3.org/1999/xlink" width="200" height="200"><defs><style type="text/css"></style></defs><path d="M469.333333 0c93.866667 0 170.666667 76.8 170.666667 170.666667v405.333333C691.2 622.933333 725.333333 691.2 725.333333 768c0 140.8-115.2 256-256 256s-256-115.2-256-256c0-76.8 34.133333-145.066667 85.333334-192V170.666667c0-93.866667 76.8-170.666667 170.666666-170.666667z m0 85.333333c-46.933333 0-81.066667 34.133333-85.333333 81.066667V614.4l-29.866667 25.6C320 674.133333 298.666667 716.8 298.666667 768c0 93.866667 76.8 170.666667 170.666666 170.666667s170.666667-76.8 170.666667-170.666667c0-46.933333-17.066667-89.6-51.2-119.466667l-4.266667-8.533333L554.666667 614.4V170.666667c0-46.933333-38.4-85.333333-85.333334-85.333334z m298.666667 341.333334c25.6 0 42.666667 17.066667 42.666667 42.666666 0 21.333333-17.066667 38.4-38.4 42.666667H725.333333c-25.6 0-42.666667-17.066667-42.666666-42.666667 0-21.333333 17.066667-38.4 38.4-42.666666h46.933333z m0-170.666667c25.6 0 42.666667 17.066667 42.666667 42.666667 0 21.333333-17.066667 38.4-38.4 42.666666H725.333333c-25.6 0-42.666667-17.066667-42.666666-42.666666 0-21.333333 17.066667-38.4 38.4-42.666667h46.933333z m0-170.666667c25.6 0 42.666667 17.066667 42.666667 42.666667 0 21.333333-17.066667 38.4-38.4 42.666667H725.333333c-25.6 0-42.666667-17.066667-42.666666-42.666667 0-21.333333 17.066667-38.4 38.4-42.666667h46.933333z" fill="#2c2c2c" p-id="4113"></path><path d="M469.333333 341.333333c21.333333 0 38.4 17.066667 42.666667 38.4v290.133334c38.4 17.066667 64 55.466667 64 98.133333 0 59.733333-46.933333 106.666667-106.666667 106.666667S362.666667 827.733333 362.666667 768c0-42.666667 25.6-81.066667 64-98.133333v-290.133334C430.933333 358.4 448 341.333333 469.333333 341.333333z" fill="#2c2c2c" p-id="4114"></path></svg>